<svg xmlns="http://www.w3.org/2000/svg" version="1.1" xmlns:xlink="http://www.w3.org/1999/xlink" xmlns:svgjs="http://svgjs.dev/svgjs" width="128" height="128" viewBox="0 0 128 128"><g transform="matrix(0.8046875,0,0,0.8046875,12.333870967741937,12.333870967741937)"><svg viewBox="0 0 155 155" data-background-color="#ffffff" preserveAspectRatio="xMidYMid meet" height="128" width="128" xmlns="http://www.w3.org/2000/svg" xmlns:xlink="http://www.w3.org/1999/xlink"><g id="tight-bounds" transform="matrix(1,0,0,1,0.25,0.25)"><svg viewBox="0 0 154.5 154.5" height="154.5" width="154.5"><g><svg></svg></g><g><svg viewBox="0 0 154.5 154.5" height="154.5" width="154.5"><g transform="matrix(1,0,0,1,47.746370999999996,62.261525374331555)"><svg viewBox="0 0 59.007258 29.976949251336897" height="29.976949251336897" width="59.007258"><g><svg viewBox="0 0 59.007258 29.976949251336897" height="29.976949251336897" width="59.007258"><g><svg viewBox="0 0 59.007258 29.976949251336897" height="29.976949251336897" width="59.007258"><g><svg viewBox="0 0 59.007258 29.976949251336897" height="29.976949251336897" width="59.007258"><g><svg viewBox="0 0 59.007258 29.976949251336897" height="29.976949251336897" width="59.007258"><g transform="matrix(1,0,0,1,0,0)"><svg width="59.007258" viewBox="-0.6 -33.25 74.8 38" height="29.976949251336897" data-palette-color="#4a596d"><path d="M26.4-12.55L26.4-12.55Q31.25-12.4 31.53-12.4 31.8-12.4 31.85-12.4L31.85-12.4Q33.05-12.5 33.05-12.05L33.05-12.05Q33.05-11.35 31.1-11.35L31.1-11.35 26.85-11.45Q25.55-11.35 25.3-11.2L25.3-11.2Q23.2-8.6 19.65-3.68 16.1 1.25 16.1 2.2L16.1 2.2Q16.1 2.6 17 2L17 2Q17.55 2 17.55 2.15L17.55 2.15Q17.55 2.4 16.45 2.9L16.45 2.9 15.05 3.65Q14.1 4.45 12.88 4.45 11.65 4.45 11.75 3.85L11.75 3.85Q11.8 2.65 15.3-2.23 18.8-7.1 22.55-11.5L22.55-11.5Q18.95-10.85 17.05-10.85L17.05-10.85Q16.85-10.9 16.85-11.18 16.85-11.45 17.45-11.95 18.05-12.45 18.73-12.45 19.4-12.45 20.9-12.5L20.9-12.5 23.45-12.5Q25.15-14.8 31-23.1L31-23.1Q33.4-26.55 33.4-28.8L33.4-28.8Q33.4-32.3 28.2-32.3L28.2-32.3Q24.15-32.3 18.68-30.05 13.2-27.8 8.6-23.9L8.6-23.9Q5.35-21.2 3.45-18.05 1.55-14.9 1.55-12.45L1.55-12.45Q1.55-8.5 6.25-8.5L6.25-8.5Q6.65-8.5 7.1-8.55L7.1-8.55Q10.15-8.8 12.88-12.03 15.6-15.25 15.6-17.45L15.6-17.45Q15.6-17.65 15.55-17.9L15.55-17.9Q16.85-17.65 16.85-16.35L16.85-16.35Q16.85-14.2 14.05-11.3L14.05-11.3Q10.25-7.35 5.25-7.35L5.25-7.35Q2.5-7.35 0.95-8.8-0.6-10.25-0.6-12.75L-0.6-12.75Q-0.6-18.65 6.6-24.65L6.6-24.65Q11.8-28.9 17.65-31.08 23.5-33.25 27.83-33.25 32.15-33.25 34.27-32 36.4-30.75 36.4-28.53 36.4-26.3 34.45-23.5L34.45-23.5Q33.3-21.65 26.4-12.55ZM71.15-21.4L71.15-21.4Q69.3-20.65 67.97-20.65 66.65-20.65 66.65-21.2L66.65-21.2Q66.65-21.55 68.12-21.6 69.6-21.65 70.25-21.95L70.25-21.95Q72.15-22.95 72.15-24.9L72.15-24.9Q72.15-25.9 71.6-27L71.6-27Q70-29.85 63.85-29.85L63.85-29.85Q60.3-29.85 56.75-28.78 53.2-27.7 50.8-25.48 48.4-23.25 48.4-21.35L48.4-21.35Q48.4-18.45 54.15-17.1L54.15-17.1 60.05-16Q63.6-15.35 65.35-14.2L65.35-14.2Q67.65-12.8 67.65-10.2L67.65-10.2Q67.65-9.15 67.3-7.95L67.3-7.95Q65.7-2.55 59.05 0.3L59.05 0.3Q53.5 2.75 45.95 2.75L45.95 2.75Q43.8 2.75 42.2 2.55L42.2 2.55Q43.8 3.45 46.4 4.1L46.4 4.1Q46.6 4.15 46.6 4.3L46.6 4.3Q46.6 4.75 45.55 4.75L45.55 4.75Q43.5 4.75 40.45 2.3L40.45 2.3Q36.3 1.65 34.25 0L34.25 0Q32.95-1.05 31.85-3.1 30.75-5.15 30.75-6.8 30.75-8.45 31.4-9.55L31.4-9.55Q32.9-12.2 35.2-12.2L35.2-12.2Q36.95-12.2 37.25-9.25L37.25-9.25Q37.95-3.55 38.2-2.75L38.2-2.75Q38.95-0.3 40.75 1.4L40.75 1.4Q42.85 1.85 45.3 1.85L45.3 1.85Q50.7 1.85 55.9-0.3 61.1-2.45 63.4-6.4L63.4-6.4Q64.35-7.95 64.35-9.15L64.35-9.15Q64.35-11.5 60.2-12.8L60.2-12.8 51.4-14.8Q48.7-15.45 47.07-16.95 45.45-18.45 45.45-20.4L45.45-20.4Q45.45-23.4 49.2-26.4L49.2-26.4Q52.05-28.7 56.17-29.98 60.3-31.25 64.27-31.25 68.25-31.25 70.85-30.1L70.85-30.1Q74.2-28.55 74.2-25.58 74.2-22.6 71.15-21.4ZM38.95 0.9L38.95 0.9Q36.05-2.3 35.25-7.85L35.25-7.85Q34.8-11 34.4-11 34-11 33.65-10.78 33.3-10.55 32.95-9.8 32.6-9.05 32.6-7.85L32.6-7.85Q32.6-4 35.3-1.25L35.3-1.25Q36.65 0.15 38.95 0.9Z" opacity="1" transform="matrix(1,0,0,1,0,0)" fill="#000000" class="undefined-text-0" data-fill-palette-color="primary" id="text-0"></path></svg></g></svg></g></svg></g></svg></g><g></g></svg></g></svg></g><g><path d="M57.665 55.185A29.504 29.504 0 0 1 96.835 55.185L94.132 55.185A26.8 26.8 0 0 0 60.368 55.185L57.665 55.185M57.665 99.315A29.504 29.504 0 0 0 96.835 99.315L94.132 99.315A26.8 26.8 0 0 1 60.368 99.315L57.665 99.315" fill="#000000" stroke="transparent" data-fill-palette-color="tertiary"></path></g></svg></g><defs></defs></svg><rect width="154.5" height="154.5" fill="none" stroke="none" visibility="hidden"></rect></g></svg></g></svg>